<svg width="268" height="48" viewBox="0 0 268 48" fill="none" xmlns="http://www.w3.org/2000/svg">
<path d="M5.98011 9.90909V39H4.20455V9.90909H5.98011ZM14.3999 9.90909H16.3317L27.5391 36.4432H27.7379L38.9453 9.90909H40.8771V39H39.1726V14.1278H39.0021L28.4766 39H26.8004L16.2749 14.1278H16.1044V39H14.3999V9.90909ZM48.1605 39H46.2855L56.7827 9.90909H58.8281L69.3253 39H67.4503L57.8764 12.196H57.7344L48.1605 39ZM50.8168 28.0483H64.794V29.696H50.8168V28.0483ZM93.7678 19C93.55 18.0152 93.1806 17.0634 92.6598 16.1449C92.139 15.2169 91.4714 14.3835 90.657 13.6449C89.852 12.8968 88.9051 12.3049 87.8161 11.8693C86.7365 11.4337 85.5244 11.2159 84.1797 11.2159C82.1248 11.2159 80.3018 11.7557 78.7109 12.8352C77.1295 13.9053 75.889 15.4347 74.9893 17.4233C74.0992 19.4025 73.6541 21.7462 73.6541 24.4545C73.6541 27.1345 74.0992 29.4687 74.9893 31.4574C75.8795 33.446 77.1248 34.9848 78.7251 36.0739C80.335 37.1534 82.2053 37.6932 84.3359 37.6932C86.2393 37.6932 87.925 37.2528 89.3928 36.3722C90.87 35.4915 92.0206 34.232 92.8445 32.5938C93.6683 30.9555 94.0708 28.9953 94.0518 26.7131L94.6768 27.0114H84.7905V25.3636H95.7848V27.0114C95.7848 29.5777 95.2924 31.7888 94.3075 33.6449C93.3321 35.4915 91.978 36.9119 90.245 37.9062C88.5215 38.9006 86.5518 39.3977 84.3359 39.3977C81.8359 39.3977 79.6532 38.7775 77.7876 37.5369C75.9221 36.2964 74.4732 34.5587 73.4411 32.3239C72.4183 30.0795 71.907 27.4564 71.907 24.4545C71.907 22.2008 72.2005 20.1553 72.7876 18.3182C73.3748 16.4811 74.2128 14.9091 75.3018 13.6023C76.3909 12.286 77.6882 11.2775 79.1939 10.5767C80.6996 9.86648 82.3615 9.51136 84.1797 9.51136C85.8274 9.51136 87.3094 9.78598 88.6257 10.3352C89.942 10.875 91.0784 11.6042 92.0348 12.5227C93.0007 13.4318 93.782 14.4498 94.3786 15.5767C94.9751 16.6941 95.3776 17.8352 95.5859 19H93.7678ZM102.994 39V9.90909H119.187V11.5568H104.769V23.6165H118.32V25.2642H104.769V37.3523H119.528V39H102.994Z" fill="#F2F2F2"/>
<a href="https://www.netlify.com/">
<rect fill="black" fill-opacity="0" y="-0.204544" width="122.326" height="48.4091"/>
</a>
<path d="M127.099 38V9.63636H142.929V11.2429H128.831V23.0011H141.614V24.6076H128.831V38H127.099ZM152.072 9.63636V38H150.341V9.63636H152.072ZM182.346 9.63636V38H180.656L162.569 12.7802H162.403V38H160.671V9.63636H162.375L180.462 34.8839H180.628V9.63636H182.346ZM198.787 38H190.921V9.63636H199.397C202.056 9.63636 204.332 10.1996 206.224 11.326C208.117 12.4524 209.567 14.0682 210.573 16.1733C211.589 18.2692 212.092 20.7852 212.083 23.7212C212.073 26.7219 211.547 29.2887 210.504 31.4215C209.461 33.5451 207.951 35.1747 205.975 36.3104C203.999 37.4368 201.603 38 198.787 38ZM192.652 36.3935H198.718C201.248 36.3935 203.381 35.8903 205.116 34.8839C206.852 33.8683 208.163 32.4141 209.05 30.5213C209.945 28.6286 210.388 26.3619 210.379 23.7212C210.379 21.1175 209.95 18.8878 209.091 17.032C208.233 15.1669 206.982 13.7358 205.338 12.7386C203.704 11.7415 201.7 11.2429 199.327 11.2429H192.652V36.3935ZM219.228 38V9.63636H235.016V11.2429H220.959V23.0011H234.171V24.6076H220.959V36.3935H235.349V38H219.228ZM242.584 38V9.63636H251.323C253.114 9.63636 254.656 9.98721 255.948 10.6889C257.241 11.3906 258.233 12.3647 258.926 13.6112C259.618 14.8484 259.965 16.2887 259.965 17.9322C259.965 19.5572 259.618 20.9883 258.926 22.2255C258.233 23.4535 257.241 24.4137 255.948 25.1062C254.665 25.7987 253.128 26.1449 251.336 26.1449H243.512V24.5245H251.295C252.754 24.5245 254 24.2521 255.034 23.7074C256.068 23.1626 256.862 22.4009 257.416 21.4222C257.97 20.4343 258.247 19.271 258.247 17.9322C258.247 16.5842 257.97 15.4116 257.416 14.4144C256.862 13.408 256.064 12.6278 255.02 12.0739C253.986 11.5199 252.74 11.2429 251.281 11.2429H244.315V38H242.584ZM254.231 25.1477L261.211 38H259.217L252.278 25.1477H254.231Z" fill="#00B5D8"/>
</svg>
